<mxfile host="app.diagrams.net" modified="2024-03-24T19:48:35.600Z" agent="Mozilla/5.0 (Windows NT 10.0; Win64; x64) AppleWebKit/537.36 (KHTML, like Gecko) Chrome/123.0.0.0 Safari/537.36" etag="6bGDhiZ2BsA_XC2V9nZ1" version="24.1.0" type="github">
  <diagram name="Page-1" id="7e0a89b8-554c-2b80-1dc8-d5c74ca68de4">
    <mxGraphModel dx="792" dy="1144" grid="1" gridSize="10" guides="1" tooltips="1" connect="1" arrows="1" fold="1" page="1" pageScale="1" pageWidth="1100" pageHeight="850" background="none" math="0" shadow="0">
      <root>
        <mxCell id="0" />
        <mxCell id="1" parent="0" />
        <mxCell id="JiaSUfVuYGxQKXb7Q7at-2" value="GP14" style="rounded=0;whiteSpace=wrap;html=1;" parent="1" vertex="1">
          <mxGeometry x="80" y="200" width="60" height="20" as="geometry" />
        </mxCell>
        <mxCell id="JiaSUfVuYGxQKXb7Q7at-3" value="GP15" style="rounded=0;whiteSpace=wrap;html=1;" parent="1" vertex="1">
          <mxGeometry x="80" y="230" width="60" height="20" as="geometry" />
        </mxCell>
        <mxCell id="JiaSUfVuYGxQKXb7Q7at-4" value="L293D" style="rounded=0;whiteSpace=wrap;html=1;" parent="1" vertex="1">
          <mxGeometry x="280" y="110" width="120" height="230" as="geometry" />
        </mxCell>
        <mxCell id="JiaSUfVuYGxQKXb7Q7at-8" value="" style="endArrow=none;html=1;rounded=0;exitX=1;exitY=0.5;exitDx=0;exitDy=0;" parent="1" source="JiaSUfVuYGxQKXb7Q7at-3" edge="1">
          <mxGeometry width="50" height="50" relative="1" as="geometry">
            <mxPoint x="140" y="360" as="sourcePoint" />
            <mxPoint x="280" y="240" as="targetPoint" />
          </mxGeometry>
        </mxCell>
        <mxCell id="JiaSUfVuYGxQKXb7Q7at-9" value="" style="endArrow=none;html=1;rounded=0;exitX=1;exitY=0.5;exitDx=0;exitDy=0;" parent="1" edge="1">
          <mxGeometry width="50" height="50" relative="1" as="geometry">
            <mxPoint x="140" y="209.5" as="sourcePoint" />
            <mxPoint x="280" y="209.5" as="targetPoint" />
          </mxGeometry>
        </mxCell>
        <mxCell id="JiaSUfVuYGxQKXb7Q7at-10" value="1A" style="text;html=1;align=center;verticalAlign=middle;whiteSpace=wrap;rounded=0;" parent="1" vertex="1">
          <mxGeometry x="270" y="195" width="60" height="30" as="geometry" />
        </mxCell>
        <mxCell id="JiaSUfVuYGxQKXb7Q7at-11" value="2A" style="text;html=1;align=center;verticalAlign=middle;whiteSpace=wrap;rounded=0;" parent="1" vertex="1">
          <mxGeometry x="270" y="225" width="60" height="30" as="geometry" />
        </mxCell>
        <mxCell id="JiaSUfVuYGxQKXb7Q7at-12" value="1,2 EN" style="text;html=1;align=center;verticalAlign=middle;whiteSpace=wrap;rounded=0;" parent="1" vertex="1">
          <mxGeometry x="270" y="120" width="60" height="30" as="geometry" />
        </mxCell>
        <mxCell id="JiaSUfVuYGxQKXb7Q7at-13" value="+5V" style="rounded=0;whiteSpace=wrap;html=1;" parent="1" vertex="1">
          <mxGeometry x="80" y="125" width="60" height="20" as="geometry" />
        </mxCell>
        <mxCell id="JiaSUfVuYGxQKXb7Q7at-14" value="" style="endArrow=none;html=1;rounded=0;exitX=1;exitY=0.5;exitDx=0;exitDy=0;" parent="1" edge="1">
          <mxGeometry width="50" height="50" relative="1" as="geometry">
            <mxPoint x="140" y="134.5" as="sourcePoint" />
            <mxPoint x="280" y="134.5" as="targetPoint" />
          </mxGeometry>
        </mxCell>
        <mxCell id="JiaSUfVuYGxQKXb7Q7at-15" value="M" style="verticalLabelPosition=middle;shadow=0;dashed=0;align=center;html=1;verticalAlign=middle;strokeWidth=1;shape=ellipse;fontSize=32;perimeter=ellipsePerimeter;" parent="1" vertex="1">
          <mxGeometry x="70" y="280" width="50" height="50" as="geometry" />
        </mxCell>
        <mxCell id="JiaSUfVuYGxQKXb7Q7at-16" value="1Y" style="text;html=1;align=center;verticalAlign=middle;whiteSpace=wrap;rounded=0;" parent="1" vertex="1">
          <mxGeometry x="280" y="260" width="40" height="30" as="geometry" />
        </mxCell>
        <mxCell id="JiaSUfVuYGxQKXb7Q7at-17" value="2Y" style="text;html=1;align=center;verticalAlign=middle;whiteSpace=wrap;rounded=0;" parent="1" vertex="1">
          <mxGeometry x="275" y="300" width="50" height="20" as="geometry" />
        </mxCell>
        <mxCell id="JiaSUfVuYGxQKXb7Q7at-19" value="" style="endArrow=none;html=1;rounded=0;entryX=0;entryY=0.5;entryDx=0;entryDy=0;exitX=0.5;exitY=0;exitDx=0;exitDy=0;" parent="1" source="JiaSUfVuYGxQKXb7Q7at-15" target="JiaSUfVuYGxQKXb7Q7at-16" edge="1">
          <mxGeometry width="50" height="50" relative="1" as="geometry">
            <mxPoint x="130" y="280" as="sourcePoint" />
            <mxPoint x="430" y="460" as="targetPoint" />
            <Array as="points" />
          </mxGeometry>
        </mxCell>
        <mxCell id="JiaSUfVuYGxQKXb7Q7at-20" value="" style="endArrow=none;html=1;rounded=0;entryX=0;entryY=0.5;entryDx=0;entryDy=0;exitX=0.5;exitY=1;exitDx=0;exitDy=0;" parent="1" source="JiaSUfVuYGxQKXb7Q7at-15" edge="1">
          <mxGeometry width="50" height="50" relative="1" as="geometry">
            <mxPoint x="95" y="320" as="sourcePoint" />
            <mxPoint x="280" y="315" as="targetPoint" />
            <Array as="points" />
          </mxGeometry>
        </mxCell>
        <mxCell id="JiaSUfVuYGxQKXb7Q7at-21" value="GND" style="text;html=1;align=center;verticalAlign=middle;whiteSpace=wrap;rounded=0;" parent="1" vertex="1">
          <mxGeometry x="270" y="160" width="60" height="30" as="geometry" />
        </mxCell>
        <mxCell id="JiaSUfVuYGxQKXb7Q7at-22" value="GND" style="rounded=0;whiteSpace=wrap;html=1;" parent="1" vertex="1">
          <mxGeometry x="80" y="165" width="60" height="20" as="geometry" />
        </mxCell>
        <mxCell id="JiaSUfVuYGxQKXb7Q7at-23" value="" style="endArrow=none;html=1;rounded=0;exitX=1;exitY=0.5;exitDx=0;exitDy=0;" parent="1" edge="1">
          <mxGeometry width="50" height="50" relative="1" as="geometry">
            <mxPoint x="140" y="174.5" as="sourcePoint" />
            <mxPoint x="280" y="174.5" as="targetPoint" />
          </mxGeometry>
        </mxCell>
        <mxCell id="JiaSUfVuYGxQKXb7Q7at-24" value="+5V" style="rounded=0;whiteSpace=wrap;html=1;" parent="1" vertex="1">
          <mxGeometry x="490" y="110" width="60" height="20" as="geometry" />
        </mxCell>
        <mxCell id="JiaSUfVuYGxQKXb7Q7at-25" style="edgeStyle=orthogonalEdgeStyle;rounded=0;orthogonalLoop=1;jettySize=auto;html=1;exitX=0;exitY=0.5;exitDx=0;exitDy=0;entryX=1;entryY=0.5;entryDx=0;entryDy=0;endArrow=none;endFill=0;" parent="1" source="JiaSUfVuYGxQKXb7Q7at-24" target="JiaSUfVuYGxQKXb7Q7at-28" edge="1">
          <mxGeometry relative="1" as="geometry" />
        </mxCell>
        <mxCell id="JiaSUfVuYGxQKXb7Q7at-26" style="edgeStyle=orthogonalEdgeStyle;rounded=0;orthogonalLoop=1;jettySize=auto;html=1;exitX=0;exitY=0.5;exitDx=0;exitDy=0;entryX=1;entryY=0.5;entryDx=0;entryDy=0;endArrow=none;endFill=0;" parent="1" source="JiaSUfVuYGxQKXb7Q7at-24" target="JiaSUfVuYGxQKXb7Q7at-27" edge="1">
          <mxGeometry relative="1" as="geometry" />
        </mxCell>
        <mxCell id="JiaSUfVuYGxQKXb7Q7at-27" value="VCC2" style="text;html=1;align=center;verticalAlign=middle;whiteSpace=wrap;rounded=0;" parent="1" vertex="1">
          <mxGeometry x="340" y="300" width="60" height="30" as="geometry" />
        </mxCell>
        <mxCell id="JiaSUfVuYGxQKXb7Q7at-28" value="VCC1" style="text;html=1;align=center;verticalAlign=middle;whiteSpace=wrap;rounded=0;" parent="1" vertex="1">
          <mxGeometry x="340" y="120" width="60" height="30" as="geometry" />
        </mxCell>
        <mxCell id="JiaSUfVuYGxQKXb7Q7at-30" value="HW-038" style="rounded=0;whiteSpace=wrap;html=1;" parent="1" vertex="1">
          <mxGeometry x="310" y="370" width="60" height="110" as="geometry" />
        </mxCell>
        <mxCell id="JiaSUfVuYGxQKXb7Q7at-31" value="+" style="text;html=1;align=center;verticalAlign=middle;whiteSpace=wrap;rounded=0;" parent="1" vertex="1">
          <mxGeometry x="310" y="450" width="20" height="30" as="geometry" />
        </mxCell>
        <mxCell id="JiaSUfVuYGxQKXb7Q7at-32" value="-" style="text;html=1;align=center;verticalAlign=middle;whiteSpace=wrap;rounded=0;" parent="1" vertex="1">
          <mxGeometry x="330" y="450" width="20" height="30" as="geometry" />
        </mxCell>
        <mxCell id="JiaSUfVuYGxQKXb7Q7at-40" style="edgeStyle=orthogonalEdgeStyle;rounded=0;orthogonalLoop=1;jettySize=auto;html=1;exitX=0.5;exitY=1;exitDx=0;exitDy=0;entryX=0.5;entryY=0;entryDx=0;entryDy=0;endArrow=none;endFill=0;" parent="1" source="JiaSUfVuYGxQKXb7Q7at-33" target="JiaSUfVuYGxQKXb7Q7at-37" edge="1">
          <mxGeometry relative="1" as="geometry" />
        </mxCell>
        <mxCell id="JiaSUfVuYGxQKXb7Q7at-33" value="S" style="text;html=1;align=center;verticalAlign=middle;whiteSpace=wrap;rounded=0;" parent="1" vertex="1">
          <mxGeometry x="340" y="450" width="30" height="30" as="geometry" />
        </mxCell>
        <mxCell id="JiaSUfVuYGxQKXb7Q7at-38" style="edgeStyle=orthogonalEdgeStyle;rounded=0;orthogonalLoop=1;jettySize=auto;html=1;exitX=0.5;exitY=0;exitDx=0;exitDy=0;entryX=0.25;entryY=1;entryDx=0;entryDy=0;endArrow=none;endFill=0;" parent="1" source="JiaSUfVuYGxQKXb7Q7at-35" target="JiaSUfVuYGxQKXb7Q7at-31" edge="1">
          <mxGeometry relative="1" as="geometry" />
        </mxCell>
        <mxCell id="JiaSUfVuYGxQKXb7Q7at-35" value="VSYS" style="rounded=0;whiteSpace=wrap;html=1;" parent="1" vertex="1">
          <mxGeometry x="270" y="530" width="40" height="30" as="geometry" />
        </mxCell>
        <mxCell id="JiaSUfVuYGxQKXb7Q7at-39" style="edgeStyle=orthogonalEdgeStyle;rounded=0;orthogonalLoop=1;jettySize=auto;html=1;exitX=0.5;exitY=0;exitDx=0;exitDy=0;entryX=0;entryY=1;entryDx=0;entryDy=0;endArrow=none;endFill=0;" parent="1" source="JiaSUfVuYGxQKXb7Q7at-36" target="JiaSUfVuYGxQKXb7Q7at-33" edge="1">
          <mxGeometry relative="1" as="geometry" />
        </mxCell>
        <mxCell id="JiaSUfVuYGxQKXb7Q7at-36" value="GND" style="rounded=0;whiteSpace=wrap;html=1;" parent="1" vertex="1">
          <mxGeometry x="310" y="530" width="40" height="30" as="geometry" />
        </mxCell>
        <mxCell id="JiaSUfVuYGxQKXb7Q7at-37" value="GP28" style="rounded=0;whiteSpace=wrap;html=1;" parent="1" vertex="1">
          <mxGeometry x="350" y="530" width="40" height="30" as="geometry" />
        </mxCell>
      </root>
    </mxGraphModel>
  </diagram>
</mxfile>
